<svg version="1.1" xmlns="http://www.w3.org/2000/svg" style="display: block;" viewBox="0 0 2436 1170" width="2436" height="1170" preserveAspectRatio="none">
<path transform="translate(0,0)" fill="rgb(255,255,255)" d="M 1473.29 49.811 C 1484.71 50.8226 1495.64 49.5108 1507.37 50.5027 C 1506.14 51.3805 1506.55 51.0616 1505.68 52.3807 C 1507.2 70.7107 1551.44 73.4513 1556.85 80.8832 C 1556.21 84.5393 1553.6 93.4389 1550.75 95.771 L 1550.67 96.6509 C 1559.38 101.564 1579.67 104.026 1586.86 109.14 C 1589.47 116.809 1581.56 122.595 1580.88 130.733 C 1585.16 135.548 1619.03 138.686 1621.79 149.969 C 1621.17 153.303 1606.16 185.236 1603.08 189.225 C 1599.86 193.38 1589.66 192.142 1584 192 L 1584 224 C 1590.9 224.079 1609.94 224.835 1615.49 223.457 C 1616 217.542 1621.21 209.103 1627.98 210.424 C 1639.51 212.673 1634.16 235.025 1638.45 240.59 C 1641.19 240.737 1642.46 240.588 1644.88 241.838 C 1646.28 247.927 1646.07 252.195 1640.7 255.425 C 1639.47 260.382 1639.93 268.644 1640 274 L 1848.14 273.99 L 1910.39 273.93 C 1939.11 273.916 1948.55 274.107 1976.43 282.029 C 2009 291.281 2042.95 299.247 2075.8 307.609 C 2088.22 310.376 2100.28 314.233 2112.47 317.786 C 2119.56 319.85 2135.65 319.82 2138.93 327.894 C 2136.97 336.824 2108.5 338.233 2104.99 344.563 C 2116.36 347.257 2122.23 349.636 2113.34 361.758 C 2113.68 366.531 2115.06 399.366 2119.27 400.499 C 2129.09 403.14 2141.15 406.413 2151.07 409.134 L 2217.3 427.603 C 2231.19 431.394 2250.31 435.988 2263.46 440.646 L 2264.15 442.447 C 2262.98 452.004 2255.3 449.689 2249.72 451.923 C 2240.81 455.49 2235.76 458.144 2226.16 459.501 C 2224.16 472.8 2239.3 461.588 2236 477.762 C 2235.77 478.905 2233.47 480.032 2232.36 480.759 C 2230.83 501.953 2232.65 530.383 2231.95 552.254 C 2231.7 560.037 2231.68 594.019 2232.61 599.631 L 2235.63 600.241 C 2238.57 606.435 2233.29 609.276 2233.46 614.501 L 2235.12 615.194 C 2236.97 617.872 2236.07 636.193 2236 641 C 2242.24 640.866 2259.67 639.839 2263.89 644.882 C 2257.53 648.446 2185.74 647.011 2171.66 647.011 L 2008.13 647.01 L 1514.5 647 L 915.191 646.989 L 789.832 646.996 C 776.612 646.997 727.055 648.246 717.794 645.308 L 717.326 644.113 C 723.496 639.838 736.59 640.823 744 641 C 743.953 636.804 743.691 620.518 744.039 616.226 C 744.084 615.665 748.816 615.354 745.057 609.474 C 743.495 607.03 743.46 602.805 744.07 600.522 C 745.231 600.099 746.403 599.706 747.585 599.345 C 749.517 573.719 747.172 545.439 748.067 519.558 C 748.485 507.444 748.332 492.726 747.603 480.678 C 745.524 479.974 745.457 480.073 743.784 478.509 C 743.623 474.832 743.417 473.73 744.852 470.199 C 748.524 466.918 749.012 467.968 754.426 466.362 C 755.734 463.443 755.303 464.299 754.583 460.511 C 742.777 456.169 730.076 452.027 718.118 447.933 C 716.612 445.845 717.048 444.135 717.171 441.462 C 724.463 436.352 818.999 413.044 833.225 408.31 C 838.273 406.631 856.971 402.31 861.659 399.455 C 869.685 388.403 865.955 362.542 862.711 350.646 C 861.12 344.813 873.988 347.034 876.503 344.532 C 873.949 339.888 839.284 335.272 841.291 326.071 C 846.535 321.404 890.698 311.485 901.381 308.741 C 934.585 299.942 967.858 291.404 1001.2 283.126 C 1008.98 281.16 1025.83 275.805 1032.03 274.6 C 1037.9 273.459 1059.71 273.95 1066.98 273.956 L 1129.52 274.006 L 1340 274 C 1340.08 270.447 1340.55 258.751 1339.54 256.074 C 1337.96 251.903 1333.35 253.503 1335.16 244.064 C 1337.9 240.934 1338.19 241.677 1342.94 240.336 C 1344.97 237.176 1344.08 223.377 1344 218.826 C 1348.41 215.52 1351.68 209.819 1358.09 211.842 C 1361.53 214.029 1363.67 219.196 1365.59 222.957 C 1371.96 224.922 1389.45 224.106 1397 224 L 1397 192 C 1394.93 192.064 1384.13 192.508 1382.71 191.99 C 1373.45 187.839 1368.26 172.782 1364.7 164.319 C 1358.34 149.2 1351.62 146.438 1370.93 140.715 C 1376.71 139 1394.66 134.059 1399.45 131.129 C 1399.57 126.176 1391.52 116.509 1392.38 110.04 C 1397.68 103.561 1419.23 103.038 1428.42 96.4227 C 1428.95 91.7127 1423.7 87.8985 1423.7 81.4214 C 1428.64 72.9384 1482.41 68.4539 1473.29 49.811 z M 1480 270 C 1483.98 269.979 1496.66 269.585 1499.64 270.608 C 1502.67 275.298 1499.2 282.622 1501.59 285.925 C 1504.8 290.382 1511.38 295.264 1515.42 299.223 C 1518.83 302.558 1521.02 308.976 1524.07 312.409 C 1534.52 324.181 1542.73 324.357 1542 342.118 C 1540.51 345.232 1533.71 350.854 1533.69 351.681 C 1533.16 372.617 1531.27 398.906 1533.52 419.518 C 1536.03 422.924 1541.21 418.304 1540.19 428.723 C 1539.68 433.929 1532.1 434.138 1532.5 437.799 C 1563.31 424.63 1600.13 410.857 1632.12 399.842 C 1638.04 397.802 1665.01 398.981 1672.8 398.999 L 1745.81 399.02 L 1975.37 399.01 L 2050.8 398.996 C 2061.33 398.994 2078.11 399.004 2087.81 398.961 C 2101.33 398.901 2092.94 357.593 2091.77 349.935 C 2090.78 343.465 2096.46 347.779 2100.71 344.606 L 2100.41 343.19 C 2095.72 341.07 2037.64 342.039 2028.37 342.038 L 1755.78 342.013 L 1672.87 342.033 C 1659.32 342.041 1643.75 342.35 1630.4 341.634 C 1625.67 341.38 1600.07 333.166 1597.6 328.544 C 1601.12 319.239 1619.98 320.355 1629.11 314.161 L 1629.79 313.687 L 1629.76 311.5 C 1623.31 305.705 1610.51 310.561 1608.32 297.961 C 1609.27 294.881 1608.52 295.705 1610.97 294.408 C 1611.8 293.965 1612.64 293.543 1613.5 293.141 C 1614.81 285.826 1614.04 264.066 1614 255 L 1365 255 C 1364.92 263.738 1364.14 285.252 1365.65 292.441 C 1367.42 293.979 1376.53 294.346 1370.09 303.72 C 1366.14 309.49 1351.82 306.027 1350.89 313.929 C 1354.39 318.804 1379.17 320.069 1383.6 327.922 C 1381.78 332.057 1380.43 331.417 1376.67 333.235 C 1353.52 344.399 1335.16 342.02 1309.94 342.018 L 1228.34 342.009 L 966.609 341.972 L 910.039 341.968 C 903.58 341.968 886.102 341.659 880.705 342.586 L 880.522 343.99 C 886.328 346.7 890.578 348.938 889.044 356.598 C 888.682 357.091 885.497 361.42 885.497 361.421 C 885.046 370.976 881.98 392.793 890.637 398.738 C 903.631 399.631 921.133 399.092 934.417 399.058 L 1006.87 398.995 L 1240.87 399.039 L 1309.12 398.933 C 1338.95 398.812 1343 396.712 1371.01 407.471 C 1386.64 413.469 1402.21 419.648 1417.7 426.009 C 1426.15 429.44 1441.13 434.166 1448.45 437.77 L 1448.59 436.715 C 1442.93 432.824 1437.25 430.533 1441.53 422.228 C 1444.08 421.125 1444.64 420.97 1447.38 420.519 C 1448.2 414.869 1448.35 355.61 1447.91 355.064 C 1424.43 325.317 1452.96 321.851 1467.46 297.756 C 1476.81 283.411 1480.35 294.619 1480 270 z M 1843 615 L 1861 615 C 1860.93 602.795 1858.18 563.503 1865.53 556.134 C 1870.38 551.243 1877.05 548.599 1883.93 548.843 C 1909.9 549.542 1903 596.936 1903 615 L 1920 615 C 1919.93 607.098 1920.41 588.501 1919.77 582.23 C 1916.75 558.225 1933.57 537.107 1956.29 554.69 C 1966.8 562.828 1961.33 601.449 1963.06 613.998 C 1963.56 617.692 1976.95 615.23 1979.21 614.059 C 1984.85 602.216 1970.81 558.166 1991.51 550.857 C 1991.92 550.713 1992.71 550.712 1993.25 550.685 C 2000.03 549.335 2004.53 547.578 2011.68 551.204 C 2026.49 558.713 2023.22 600.012 2023 615 L 2040 615 C 2039.85 593.935 2031.66 538.07 2068.27 550.334 C 2072.47 551.742 2074.37 553.355 2077.05 557.096 C 2084.53 570.375 2080.87 599.884 2081 615 C 2085 615.007 2094.78 615.323 2098.18 614.44 C 2106.12 601.104 2087.37 553.889 2115.79 548.969 C 2121.86 547.919 2136.21 551.76 2138.17 557.839 C 2143.46 574.177 2140.9 597.693 2141 615 C 2148.73 615.028 2202.93 615.863 2206.24 614.211 C 2205.22 609.184 2198.21 611.48 2205.93 599.77 L 2206.46 598.97 C 2208.6 561.337 2206.12 522.283 2207.06 484.513 C 2207.19 479.039 2200.98 473.828 2204.68 468.108 C 2209.3 467.955 2217.82 468.197 2221.49 465.763 C 2222.88 462.964 2221.58 461.198 2219.27 459.365 C 2214.86 458.549 2176.05 459.009 2169.15 459.01 L 2042.24 459.013 L 1561 459 C 1560.97 464.652 1560.59 476.119 1561.75 481.154 C 1567.24 483.728 1573.04 485.193 1578.91 487.146 C 1609.79 497.406 1641.43 506.327 1671.9 517.631 C 1674.23 518.495 1674.52 519.451 1675.59 521.418 C 1673.92 530.011 1659.11 529.123 1653.38 533.102 C 1648.56 536.445 1646.79 532.612 1645.71 538.103 L 1646.7 539.631 C 1651.09 540.412 1651.59 539.766 1654.39 542.306 C 1655.82 548.318 1649.91 552.348 1649.93 558.263 C 1649.95 568.693 1649.54 579.873 1650.37 590.241 C 1650.99 597.979 1653.26 603.609 1653.06 611.601 L 1651.93 613.408 C 1655.54 616.317 1674.98 615.091 1681 615 C 1680.89 599.386 1678.29 569.651 1685.79 555.836 C 1686.5 554.532 1700.69 547.815 1703.36 547.817 C 1710.38 550.98 1721.52 554.716 1722.34 563.618 C 1723.97 581.178 1722.93 597.831 1723 615 L 1741 615 C 1740.9 602.631 1738.31 566.411 1745.55 555.922 C 1746.86 554.016 1757.17 549.241 1760.12 547.613 C 1765.8 547.835 1780.9 555.647 1781.8 561.889 C 1784.18 578.214 1783 598.561 1783 615 L 1801 615 C 1800.93 602.795 1798.18 563.503 1805.53 556.134 C 1810.38 551.243 1817.05 548.599 1823.93 548.843 C 1849.9 549.542 1843 596.936 1843 615 z M 839 615 C 838.93 599.277 835.273 566.54 844.958 554.976 C 853.838 544.375 878.247 548.455 880.433 564.407 C 882.64 580.519 880.854 598.49 881 615 L 898 615 C 897.835 593.671 889.903 539.41 927.044 550.403 C 948.136 556.647 940.836 596.478 941 615 L 958 615 C 957.9 598.601 954.332 564.479 965.343 554.035 C 971.321 548.364 973.1 551.826 978.94 548.314 C 1009.3 551.159 1000.85 592.67 1001 615 L 1018 615 C 1017.95 605.925 1018.04 597.168 1017.85 587.597 C 1017.58 573.643 1015.64 553.143 1034.05 549.858 C 1035.46 549.607 1036.99 548.802 1038.26 548.171 C 1068.58 549.36 1061.15 593.346 1061 615 L 1078 615 C 1077.91 598.338 1077.23 578.839 1078.62 562.093 C 1079.58 559.579 1082.89 556.931 1084.54 554.956 C 1091.53 546.566 1106.6 547.861 1113.95 554.748 C 1126.6 566.608 1114.1 605.04 1122.06 614.618 C 1127.93 615.156 1132.16 615.093 1138 615 C 1137.97 607.595 1137.26 570.411 1138.37 565.427 C 1139.35 561.012 1141.54 556.958 1144.7 553.724 C 1148.19 550.172 1152.98 548.199 1157.97 548.26 C 1184.17 548.452 1180.95 583.831 1180.03 601.091 C 1179.82 605.138 1179.67 607.685 1177.94 611.403 C 1183.44 617.136 1190.19 615.261 1198 615 C 1197.85 598.026 1190.71 544.048 1218.26 549.557 C 1224.79 550.864 1230.56 549.878 1234.33 554.858 C 1241.93 564.886 1239 604.47 1239 615 L 1258 615 C 1257.92 599.548 1257.73 584.587 1258.01 568.724 C 1258.26 554.797 1266.08 551.921 1278.03 547.684 C 1278.27 547.601 1286.23 551.324 1288 550.991 C 1291.49 551.105 1297.13 559.399 1297.58 562.594 C 1300.77 577.759 1298.89 599.251 1299 615 C 1304.67 615.048 1324.9 615.561 1329.31 614.676 L 1329.4 612.268 C 1324.66 607.603 1322.64 604.428 1328.95 599.494 L 1329.67 598.931 C 1331.42 588.457 1329.48 577.486 1329.93 567.158 C 1330.24 560.049 1324.97 544.427 1329.17 540.39 C 1332.96 539.814 1333.04 540.493 1335 538.057 L 1334.62 536.025 C 1327.24 531.96 1308.91 528.693 1304.05 523.026 L 1303.81 521.305 C 1309.36 514.067 1376.01 496.573 1388.25 491.367 C 1417.34 478.994 1419.44 493.848 1419 459 L 759 459 C 759.066 463.858 758.293 463.559 760.634 466.899 C 766.942 470.399 784.571 462.859 775.481 477.795 C 774.876 478.779 774.248 479.748 773.596 480.701 C 771.243 518.279 773.781 558.098 773.142 595.872 C 773.062 600.584 781.413 606.537 774.93 612.233 C 774.483 612.625 774.028 613.008 773.566 613.381 L 774.277 614.766 C 787.536 616.122 824.058 614.972 839 615 z M 1534 560 C 1533.97 567.444 1532.86 611.192 1535.63 614.345 C 1544.75 616.934 1577.01 616.043 1588.5 616 C 1594.14 616.063 1620.61 617.021 1623.86 615.025 L 1624.05 613.266 L 1623.44 612.552 C 1618.63 606.945 1620.16 604.183 1624.56 598.995 C 1625.2 586.686 1625.28 573.58 1625.16 561.214 C 1625.1 554.957 1619.04 547.725 1622.27 540.723 C 1627.82 539.321 1633.9 540.141 1641.23 538.288 L 1640.86 536.813 C 1627.86 533.615 1606.18 535.203 1592.16 535.263 L 1528.05 535.121 L 1401.55 535.008 C 1381.68 535.009 1358.18 534.429 1338.7 535.139 L 1339.27 538.872 C 1344.57 542.121 1358.17 537.703 1358.44 542.674 C 1358.68 547.002 1357.36 557.948 1356.25 562.529 C 1352.49 578.133 1359.1 596.653 1358.71 610.515 L 1355.77 613.459 L 1356.65 614.91 C 1375.69 616.624 1424.27 616.59 1443.94 615.095 C 1449.11 606.989 1439.28 562.072 1449.37 560.416 C 1453.17 559.792 1472.27 559.872 1477.6 559.885 L 1534 560 z M 1578 164 C 1527.91 164.005 1477.69 164.272 1427.58 163.999 C 1419.13 163.953 1410.21 163.787 1401.8 164.137 C 1400.44 167.976 1402.05 218.161 1403.66 223.424 C 1416.14 224.842 1448.42 224.008 1462.24 224.006 L 1576.85 224 C 1578.95 221.106 1578.03 171.685 1578 164 z M 1435.3 444.5 C 1439.3 444.045 1440.94 443.747 1444.97 444.223 L 1445.84 443.611 C 1439.77 438.271 1401.17 440 1391.35 440.001 L 1308.41 440.005 L 907.153 440.02 L 789.51 439.937 C 782.093 439.93 741.725 439.077 737.25 440.484 C 734.846 441.616 725.066 443.118 724.807 443.749 C 731.209 444.121 742.747 446.276 747.031 446.23 C 782.866 445.844 818.827 446.001 854.665 446.001 L 1090.04 446.016 L 1315.61 446.019 C 1353.97 446.02 1392.43 446.104 1430.8 445.925 C 1432.35 445.918 1434.07 445.507 1435.3 444.5 z M 2245.3 444.5 C 2248.93 444.2 2251.86 443.865 2255.45 443.318 C 2249.06 442.513 2239.74 439.623 2234 439.718 C 2219.08 439.964 2204.25 440.006 2189.33 440.011 L 2082.82 440.027 L 1756.13 440.026 L 1599.05 439.94 C 1591.4 439.933 1547.93 439.035 1543.25 440.472 C 1539.82 441.919 1536.21 442.564 1532.58 443.274 L 1533.04 443.919 C 1543.83 443.969 1549.88 446.016 1557.59 446.09 L 1968.11 446.028 L 2148.28 446.023 C 2158.65 446.023 2242.14 447.089 2245.3 444.5 z M 1433.5 480 L 1556 480 C 1556.08 473.998 1556.59 465.354 1555.2 459.748 C 1547.81 453.701 1527.34 452.611 1524.49 444.256 C 1521.01 446.954 1521.22 445.601 1517 446.093 C 1515.27 446.295 1516.21 452.945 1513.65 453.682 C 1507.5 455.453 1504.68 450.665 1504.86 458.993 C 1500.38 461.8 1500.29 456.475 1497.45 466.175 C 1487.9 473.292 1479.45 461.577 1474.2 454.415 L 1467.67 454.185 C 1464.7 450.712 1463.84 442.615 1455.32 444.896 C 1454.51 446.039 1453.44 447.551 1452.11 449.432 C 1444.41 452.893 1430.46 454.637 1424.45 460.091 C 1424.22 460.301 1423.69 475.416 1424.1 477.178 C 1424.4 478.48 1424.45 478.437 1425.18 479.664 C 1428.2 480.453 1430.39 480.142 1433.5 480 z M 1365 241 L 1614 241 L 1614 229 L 1365 229 L 1365 241 z M 1352.5 327 C 1357.88 326.997 1364.69 327.244 1369.86 326.3 C 1362.99 326.355 1364.09 324.192 1358.42 322.804 C 1355.09 321.99 1347.91 322.108 1344.22 322.076 L 988.455 322.019 L 908.158 321.934 C 901.811 321.927 876.423 321.57 872 322.5 C 864.787 323.346 862.185 324.456 855.274 326.312 C 858.315 327.881 1310.86 326.999 1352.5 327 z M 2111.5 327 C 2115.55 327.01 2122.24 327.257 2126 326.534 L 2123.22 327.203 L 2122.79 324.628 C 2103.44 321.251 2086.28 322 2066.75 322.002 L 2003.13 322.005 L 1774.64 322.025 L 1672.73 321.94 C 1664.82 321.928 1633.51 321.376 1627.51 322.345 C 1624.4 322.788 1613.93 324.899 1612.02 326.585 C 1618.23 327.701 1645.69 327.004 1654.23 327 L 1751.58 326.988 L 2111.5 327 z M 1463 355 L 1479 355 C 1478.99 367.672 1478.16 410.449 1479.66 421.024 L 1480.99 421.028 L 1479.71 421.148 L 1481.28 420.433 C 1484.4 409.488 1482.97 369.607 1483 355 L 1498 355 L 1498 385.5 C 1497.95 392.243 1496.81 415.712 1499.37 420.268 L 1501.31 421.395 C 1504.01 418.261 1503.01 362.676 1503 355 C 1507.59 354.945 1512.93 354.531 1517.19 355.992 C 1517.5 377.229 1516.98 399.622 1517 421.003 L 1528 421 L 1528 353 L 1453 353 C 1452.99 374.526 1453.39 397.735 1452.53 419.121 C 1455.79 421.753 1458.46 421.27 1462.38 420.262 C 1463.89 412.751 1462.99 365.77 1463 355 z M 1329 641 L 1378.39 641.118 C 1386.54 641.139 1399.58 641.717 1407.05 640.454 C 1407.75 637.348 1408.03 636.146 1409.27 633.229 C 1414.01 631.984 1416.77 633.704 1419.23 631.881 C 1419.16 627.28 1418.45 628.237 1420.91 625.486 C 1424.18 624.549 1426.13 624.856 1429.5 625 C 1434.5 625.138 1439.6 625.81 1443.93 623.465 L 1445.11 621.948 C 1440.8 618.722 1342.58 619.998 1329 620 L 1329 641 z M 1650 641 L 1650 620 L 1574.63 619.975 C 1562.12 619.975 1544.69 619.485 1532.49 620.302 C 1538.36 629.954 1550.31 622.731 1560.34 625.369 C 1562.08 629.205 1560.16 632.291 1561.8 632.819 C 1565.29 633.94 1569.04 631.79 1571.95 633.853 L 1572.56 640.021 C 1577.04 642.185 1639.67 640.953 1650 641 z M 753 600 L 768 600 L 768 480 L 753 480 L 753 600 z M 2212 600 L 2226 600 L 2226 480 L 2212 480 L 2212 600 z M 1625.5 250 C 1631.53 250.166 1634.9 250.588 1640.65 248.456 C 1640.83 248.025 1640.1 246.341 1639.88 245.711 C 1609.65 243.754 1565.52 244.973 1534.01 244.978 L 1343.09 245 C 1340.24 246.674 1340.37 245.956 1339.65 248.316 C 1341.33 249.619 1343.61 250.165 1345.79 250.027 C 1370.58 248.465 1395.64 251.657 1420.06 251.674 C 1449.12 251.695 1479.63 248.383 1509 250.69 C 1528.55 252.225 1548.38 248.589 1568.39 251.703 C 1587.03 251.84 1606.79 249.681 1625.5 250 z M 1459 574 C 1472.74 573.951 1507.67 572.955 1519.75 574.403 C 1521.51 576.785 1521.03 581.275 1521 584.5 C 1520.98 590.001 1520.28 621.838 1521.91 624.38 C 1524.73 625.042 1526.09 624.613 1528.93 624.168 L 1530.68 622.824 C 1532.06 609.47 1531.07 578.625 1531 564 L 1451.44 564 C 1450.62 572.21 1449.99 618.254 1452.62 623.955 C 1455.27 623.875 1456.82 624.356 1458.37 622.897 C 1460.03 613.984 1458.96 584.793 1459 574 z M 1653.5 520 C 1657.83 520.221 1658.99 519.393 1660.3 519.509 C 1657.16 518.533 1654.5 517.878 1651.74 516.049 L 1408.08 516.032 C 1397.44 516.027 1334.38 514.59 1328.25 516.407 C 1325.39 517.547 1322.53 518.659 1319.65 519.743 C 1356.61 520.936 1398.68 520.003 1435.96 520.004 L 1653.5 520 z M 1488 333 C 1482.35 332.985 1446.13 332.263 1444.24 333.934 L 1444.55 339.946 C 1447.29 341.95 1490.58 341.035 1497.5 341 C 1505.13 341.097 1532.33 342.631 1536.79 338.803 C 1536.81 336.117 1537.35 335.135 1535.9 333.609 C 1526.09 331.75 1503.5 333.332 1492 332.896 C 1491.95 318.955 1491.68 304.264 1492.27 290.375 C 1492.48 285.222 1498.31 284.947 1496.27 276.33 C 1494.12 274.421 1487.5 274.987 1484 275 C 1483.39 287.334 1486.81 283.738 1487.43 289.901 C 1488.75 303.018 1488.02 319.618 1488 333 z M 1335 600 L 1351 600 L 1351 554 L 1335 554 L 1335 600 z M 1646 554 L 1630 554 C 1629.96 559.643 1629.15 596.915 1630.74 599.607 C 1636.3 600.279 1640.54 600.109 1646.09 600 C 1645.33 585.067 1646.06 569.079 1646 554 z M 1260.5 573.227 C 1263.57 580.438 1268.33 578.161 1276 578 C 1275.93 585.897 1274.78 610.478 1277.49 615.907 L 1278.75 615.683 C 1280.45 609.882 1280.12 606.453 1280 600.5 L 1280 578 C 1284.25 578.146 1289.9 578.815 1293.55 577.026 L 1294.62 575.773 L 1293.27 573.407 C 1286.1 572.117 1268.38 573.054 1260.5 573.227 z M 1541.5 109 C 1545.5 109.018 1566.54 109.532 1568.63 108.374 C 1565.8 107.51 1561.81 106.473 1559.59 105.07 C 1555.77 102.658 1538.79 98.425 1535.41 98.4484 C 1522.14 98.5405 1448.61 96.4572 1440.25 98.4072 L 1439.48 98.7427 C 1431.35 102.243 1422.81 103.003 1415.48 107.196 C 1413.81 108.147 1413.16 108.21 1411.34 108.592 C 1420.35 109.694 1444.98 109.053 1454.88 109.052 L 1541.5 109 z M 1097 578 C 1096.98 584.429 1095.75 612.8 1098.64 615.959 L 1100.27 615.415 C 1101.67 611.744 1101.11 605.628 1101 601.5 L 1101 578 C 1104.81 578.049 1111.37 578.534 1114.64 577.258 C 1114.7 575.218 1114.38 575.092 1113.26 573.392 C 1106.31 572.127 1089.26 573.06 1081.5 573.227 C 1084.57 580.438 1089.33 578.161 1097 578 z M 1409.04 133 C 1406.79 134.01 1380.71 144.183 1379.24 144.474 C 1384.49 146.492 1550.17 145 1572.5 145 C 1580.8 145.011 1589.09 145.099 1597.38 145.264 L 1598.51 143.43 L 1598.44 145.209 L 1598.97 143.66 C 1573.1 129.69 1543.76 132.871 1515.45 132.888 L 1409.04 133 z M 1468.04 69 C 1463.84 70.8229 1445.02 78.5202 1441.43 78.4744 L 1441.67 79.3737 C 1447.4 80.559 1460.3 80.0022 1466.88 79.9992 L 1513.5 80 C 1520.9 80.0659 1532.04 80.5075 1538.98 79.3023 L 1539.54 78.4399 C 1530.23 76.7035 1519.07 70.2587 1511.79 69.5479 C 1498.31 68.2316 1481.81 68.9299 1468.04 69 z M 981 578 C 984.926 578.078 992.247 578.68 995.502 577.149 C 995.931 574.668 996.181 575.361 995.269 573.419 C 988.873 572.227 970.917 572.986 963.455 573 L 962.122 576.11 C 964.52 579.722 973.67 578 978 578 C 977.985 584.228 976.687 613.37 978.491 616.127 L 979.607 616.211 C 981.166 613.121 981.985 609.711 982 606.25 C 982.045 596.769 980.685 586.489 981 578 z M 1701 578 C 1700.88 586.253 1700.02 607.438 1702.04 614.218 L 1703.26 615.297 L 1704.58 614.216 C 1705.14 608.237 1705.11 604.427 1705 598.5 C 1704.92 591.273 1704.11 585.562 1703.7 578.457 C 1708.74 577.08 1715.55 578.974 1718.23 577.32 L 1718.31 575.306 C 1716.74 573.63 1716.35 572.804 1713.48 572.878 C 1704.31 573.116 1693.53 572.625 1684.5 573.227 C 1687.64 580.589 1693.13 578.233 1701 578 z M 1823 604.5 L 1823 578 C 1826.92 578.078 1834.25 578.682 1837.49 577.147 C 1837.92 574.666 1838.17 575.358 1837.25 573.418 C 1829.63 572.103 1813.03 573.047 1804.5 573.227 C 1808.68 583.049 1815.39 575.299 1820.26 578.775 C 1820.72 587.166 1816.64 608.875 1821.36 615.668 L 1822.7 615.587 C 1823.08 611.349 1823.1 608.765 1823 604.5 z M 1473.33 65 L 1496.5 65 C 1500.52 64.9899 1502.81 65.7383 1505.57 63.7897 C 1503.49 56.3568 1489.97 55.8359 1483.77 56 C 1479.05 58.4499 1476.51 60.5955 1473.33 65 z M 2123 578 C 2126.75 578.067 2132.82 578.566 2135.98 577.087 L 2136.6 575.479 C 2135 573.451 2135.4 573.18 2133.21 573.049 C 2123.95 572.495 2111.75 572.673 2102.5 573.227 C 2105.64 580.589 2111.13 578.233 2119 578 C 2118.93 586.101 2118.19 608.85 2119.42 615.199 L 2120.71 615.748 C 2124.43 612.311 2123.2 606.458 2123 601.5 L 2123 578 z M 1620 255 L 1620 294 L 1634 294 L 1634 255 L 1620 255 z M 1568.18 641.616 L 1567.52 639.492 C 1564.27 638.619 1528.09 638.959 1522.51 639.054 C 1486.16 639.678 1447.95 638.06 1411.79 639.199 C 1412.78 640.088 1414.09 641.275 1415.73 642.761 C 1464.96 643.423 1514.38 642.982 1563.62 642.877 C 1565.93 642.872 1567.11 642.176 1568.18 641.616 z M 1445.64 426 C 1447.88 429.848 1448.9 430.385 1452.44 433 L 1499.55 433.147 C 1509.29 433.194 1525.04 435.041 1532.75 429.515 L 1534.01 427.882 L 1533.28 426.534 C 1527.96 425.445 1511.5 425.995 1504.99 425.996 L 1445.64 426 z M 1453.94 322 C 1452.24 323.883 1451.33 324.871 1449.42 326.523 C 1451.54 327.673 1476.47 326.981 1481.13 327 L 1482.85 326.434 L 1482.96 323.363 C 1479.48 320.891 1459.55 321.908 1453.94 322 z M 1481.85 317 C 1483.61 314.601 1483.13 315.909 1483.33 312.939 C 1479.75 309.758 1468.68 310.884 1463.35 311 C 1461.07 313.807 1460.82 313.16 1460.79 315.979 C 1464.92 318.319 1476.29 316.918 1481.85 317 z M 1362.46 301.577 L 1362.88 301.215 C 1364.51 299.827 1364.65 299.681 1366.57 298.82 L 1366.32 297.923 L 1340.94 298 C 1345.79 303.256 1357.48 309.883 1362.46 301.577 z M 747.654 605.479 C 752.325 609.519 763.775 608.317 770.422 607.844 C 771.4 607.766 772.375 607.658 773.346 607.521 C 768.675 603.481 757.225 604.683 750.578 605.156 C 749.6 605.234 748.625 605.342 747.654 605.479 z M 773.346 474.521 C 768.675 470.481 757.225 471.683 750.578 472.156 C 749.6 472.234 748.625 472.342 747.654 472.479 C 752.325 476.519 763.775 475.317 770.422 474.844 C 771.4 474.766 772.375 474.658 773.346 474.521 z M 1649 547.5 C 1645.76 545.069 1630.2 545.618 1626 546.5 C 1629.24 548.931 1644.8 548.382 1649 547.5 z M 2206.65 472.479 C 2211.37 476.557 2225.01 475.392 2231.35 474.521 C 2226.63 470.443 2212.99 471.608 2206.65 472.479 z M 862 599.5 L 862 578 C 865.966 578.061 873.2 578.554 876.626 577.258 C 876.699 575.234 876.362 575.097 875.251 573.404 C 867.645 572.084 851.069 573.046 842.504 573.227 C 845.573 580.438 850.333 578.161 858 578 C 858.002 582.875 857.393 614.337 858.963 616.048 C 864.022 614.374 862.039 604.955 862 599.5 z M 1759 578 C 1758.93 585.944 1758.21 607.973 1759.43 614.201 L 1762.18 615.767 C 1763.57 612.38 1763.05 605.48 1763 601.5 L 1763 578 L 1776.97 578.016 C 1778.35 575.583 1778.1 576.705 1777.44 573.564 C 1771.4 572.114 1751.62 572.977 1744.72 573.07 L 1745.27 576.885 C 1748.76 579.026 1754.54 578.133 1759 578 z M 1495.5 322.227 C 1496.34 324.186 1496.6 326.037 1498.13 326.343 C 1507.94 328.304 1522.05 326.867 1531.97 327 C 1528.16 323.039 1528.46 322.465 1522.55 321.943 C 1513.5 321.143 1504.58 321.911 1495.5 322.227 z M 1354 547.5 C 1350.76 545.069 1335.2 545.618 1331 546.5 C 1334.24 548.931 1349.8 548.382 1354 547.5 z M 1509.24 436.679 C 1501.57 440.265 1462.3 436.221 1460.39 438.723 L 1468.7 442.315 C 1469.02 444.183 1469.24 445.682 1469.44 447.564 C 1472.03 448.945 1473.35 448.621 1476.29 448.52 C 1479.1 451.107 1478.23 449.798 1479.32 453.868 C 1490.08 457.23 1484.37 463.428 1494.67 461.708 L 1495.37 455.866 C 1497.69 454.903 1497.9 454.966 1500.45 454.899 C 1502.51 450.279 1500.68 450.653 1503.96 448.098 C 1506.83 448.041 1510.47 448.605 1512.03 447.056 L 1512.07 442.906 C 1516.36 439.837 1516.7 444.656 1519.85 439.792 L 1519.33 438.325 C 1515.94 437.798 1514.19 437.696 1511.07 436.085 L 1509.24 436.679 z M 903.724 573.07 L 904.273 576.885 C 907.76 579.026 913.539 578.133 918 578 C 917.931 586.121 917.195 608.837 918.429 615.213 L 919.772 615.83 C 923.342 613.553 922.124 605.704 922 601.5 L 922 578 C 925.709 578.022 934.608 578.825 936.794 577.062 C 936.509 575.809 936.358 573.779 935.157 573.536 C 927.304 571.954 911.497 572.979 903.724 573.07 z M 1333.48 612.399 C 1335.02 615.031 1334.34 614.944 1336.67 615.653 C 1340.28 616.753 1348.32 616.078 1351.84 615.166 L 1350.53 612.559 C 1345.73 611.271 1338.53 611.887 1333.48 612.399 z M 1521.28 313.397 C 1514.55 308.5 1506.11 317.27 1497.56 310.487 C 1497.12 313.999 1496.49 313.916 1498.18 316.207 C 1507.57 318.549 1509.48 317.75 1518.84 316.608 C 1520.68 315.365 1520.56 315.376 1521.28 313.397 z M 1879 578 C 1878.97 587.782 1878.39 605.522 1879.32 614.68 L 1881.08 616.042 L 1882.74 615.406 C 1883.2 611.261 1883.04 606.705 1883 602.5 L 1883 578 C 1886.92 578.078 1894.25 578.68 1897.5 577.149 C 1897.93 574.669 1898.18 575.362 1897.26 573.423 C 1890.79 572.219 1872.35 572.987 1864.86 573.014 L 1864.46 575.401 C 1868.21 579.467 1873.61 578.189 1879 578 z M 1484.52 306.601 C 1481.06 300.671 1472.95 302.896 1466.48 303.399 C 1469.94 309.329 1478.05 307.104 1484.52 306.601 z M 1360 255 L 1345 255 L 1345 293 L 1360 293 L 1360 255 z M 1623.75 605.416 C 1630.4 609.267 1642.76 608.524 1650.35 607.521 C 1645.51 603.336 1630.33 604.69 1623.75 605.416 z M 2206.72 605.418 C 2211.45 609.272 2227.06 608.978 2232.53 606.958 C 2229.11 603.571 2211.93 604.792 2206.72 605.418 z M 1329.72 605.418 C 1334.44 609.271 1350.08 608.94 1355.53 607.031 C 1352.11 603.527 1335 604.785 1329.72 605.418 z M 1496.7 302.139 L 1497.27 305.866 C 1501.63 308.398 1508.37 306.919 1513.63 307 C 1509.29 300.514 1504.24 301.794 1496.7 302.139 z M 1449 346.5 C 1456.87 347.461 1524.03 347.35 1531 346.5 C 1523.13 345.539 1455.97 345.65 1449 346.5 z M 1614.94 298 C 1625.88 309.34 1625.27 305.407 1636.42 301.502 L 1636.85 301.152 C 1638.5 299.807 1638.66 299.66 1640.57 298.824 L 1640.33 297.925 L 1614.94 298 z M 1021.5 573.227 C 1024.57 580.438 1029.33 578.161 1037 578 C 1036.98 584.429 1035.75 612.8 1038.64 615.959 L 1040.27 615.415 C 1041.67 611.744 1041.11 605.628 1041 601.5 L 1041 578 C 1045.05 578.133 1051.11 578.877 1054.33 577.01 C 1055.01 574.348 1055.23 575.492 1054.27 573.413 C 1046.63 572.108 1030.04 573.046 1021.5 573.227 z M 2043.72 573.07 L 2044.27 576.876 C 2048.07 579.128 2054.31 578.179 2059 578 C 2058.93 586.099 2058.2 608.852 2059.41 615.199 L 2060.69 615.754 C 2064.46 612.375 2063.2 607.46 2063 602.5 L 2063 578 C 2066.81 578.049 2073.37 578.533 2076.65 577.259 C 2076.71 575.221 2076.38 575.095 2075.26 573.395 C 2068.77 572.194 2051.23 573.015 2043.72 573.07 z M 1357.25 241.111 L 1359.47 240.54 C 1361.66 232.613 1362.15 219.783 1353.08 216.191 C 1348.27 222.572 1347.46 231.719 1348.12 239.662 L 1349.03 240.778 C 1351.74 240.894 1354.54 241.054 1357.25 241.111 z M 1201.72 573.07 L 1202.27 576.885 C 1205.76 579.026 1211.54 578.133 1216 578 C 1215.93 585.944 1215.21 607.973 1216.43 614.201 L 1219.18 615.767 C 1220.57 612.38 1220.05 605.48 1220 601.5 L 1220 578 L 1233.97 578.016 C 1235.35 575.583 1235.1 576.705 1234.44 573.564 C 1228.4 572.114 1208.62 572.977 1201.72 573.07 z M 872 358 C 871.959 365.712 871.389 385.668 872.368 392.397 C 876.058 393.251 877.338 393.118 881 393 C 881.046 387.359 882.043 361.507 879.617 358.307 C 876.873 358.093 874.787 357.921 872 358 z M 2100 358 C 2099.96 365.712 2099.39 385.668 2100.37 392.397 C 2104.06 393.251 2105.34 393.118 2109 393 C 2109.05 387.359 2110.04 361.507 2107.62 358.307 C 2104.87 358.093 2102.79 357.921 2100 358 z M 1925.45 573 L 1924.12 576.11 C 1926.34 579.56 1934.85 578.183 1939 578 C 1938.94 585.567 1937.81 610.829 1940.34 615.938 C 1943.94 613.682 1943.11 606.605 1943 602.5 L 1943 578 C 1946.93 578.078 1954.25 578.68 1957.5 577.149 C 1957.93 574.668 1958.18 575.361 1957.27 573.419 C 1950.87 572.227 1932.92 572.986 1925.45 573 z M 1625.52 216.269 C 1619.21 220.323 1617.27 235 1620.86 240.63 C 1624.44 240.96 1626.52 241.077 1630.13 241 L 1632.15 240.196 C 1632.92 233.438 1633.28 219.282 1625.52 216.269 z M 1982.5 573.227 C 1985.64 580.589 1991.13 578.233 1999 578 C 1998.96 588.104 1997.15 609.104 2001.72 616.299 C 2003.28 614.3 2003.06 603.503 2003 600.5 L 2003 578 C 2006.92 578.077 2014.25 578.681 2017.49 577.15 C 2017.9 574.672 2018.16 575.365 2017.23 573.434 C 2009.46 572.088 1991.1 573.051 1982.5 573.227 z M 1141.72 573.07 L 1142.27 576.885 C 1145.76 579.026 1151.54 578.133 1156 578 C 1155.93 585.951 1155.21 607.997 1156.43 614.226 L 1159.66 615.919 C 1161.75 613.214 1161.08 606.276 1161 602.5 L 1161 578 L 1173.98 578.004 C 1175.35 575.572 1175.11 576.694 1174.44 573.559 C 1168.4 572.117 1148.62 572.977 1141.72 573.07 z M 1422.48 629.399 L 1424.42 632.652 C 1432.76 633.647 1444.92 633.141 1453.51 633.074 C 1488.39 632.802 1523.46 633.513 1558.31 632.819 L 1555.27 629.209 C 1528.93 628 1498.77 629.357 1472.08 628.942 C 1462.58 628.794 1430.37 628.418 1422.48 629.399 z"/>
<path transform="translate(0,0)" fill="rgb(255,255,255)" d="M 2048 358.964 C 2051.17 358.872 2052.43 358.694 2055.53 359.706 C 2056.6 366.305 2056.05 385.464 2056 393.036 C 2052.83 393.128 2051.57 393.306 2048.47 392.294 C 2047.4 385.695 2047.95 366.536 2048 358.964 z"/>
<path transform="translate(0,0)" fill="rgb(255,255,255)" d="M 2012 358.964 C 2015.17 358.872 2016.43 358.694 2019.53 359.706 C 2020.6 366.305 2020.05 385.464 2020 393.036 C 2016.83 393.128 2015.57 393.306 2012.47 392.294 C 2011.4 385.695 2011.95 366.536 2012 358.964 z"/>
<path transform="translate(0,0)" fill="rgb(255,255,255)" d="M 1956 358.964 C 1959.17 358.872 1960.43 358.694 1963.53 359.706 C 1964.6 366.305 1964.05 385.464 1964 393.036 C 1960.83 393.128 1959.57 393.306 1956.47 392.294 C 1955.4 385.695 1955.95 366.536 1956 358.964 z"/>
<path transform="translate(0,0)" fill="rgb(255,255,255)" d="M 1049 358.964 C 1052.17 358.872 1053.43 358.694 1056.53 359.706 C 1057.6 366.305 1057.05 385.464 1057 393.036 C 1053.83 393.128 1052.57 393.306 1049.47 392.294 C 1048.4 385.695 1048.95 366.536 1049 358.964 z"/>
<path transform="translate(0,0)" fill="rgb(255,255,255)" d="M 1755 358.964 C 1758.17 358.872 1759.43 358.694 1762.53 359.706 C 1763.6 366.305 1763.05 385.464 1763 393.036 C 1759.83 393.128 1758.57 393.306 1755.47 392.294 C 1754.4 385.695 1754.95 366.536 1755 358.964 z"/>
<path transform="translate(0,0)" fill="rgb(255,255,255)" d="M 1262 358.964 C 1265.17 358.872 1266.43 358.694 1269.53 359.706 C 1270.6 366.305 1270.05 385.464 1270 393.036 C 1266.83 393.128 1265.57 393.306 1262.47 392.294 C 1261.4 385.695 1261.95 366.536 1262 358.964 z"/>
<path transform="translate(0,0)" fill="rgb(255,255,255)" d="M 1061 358.964 C 1064.17 358.872 1065.43 358.694 1068.53 359.706 C 1069.6 366.305 1069.05 385.464 1069 393.036 C 1065.83 393.128 1064.57 393.306 1061.47 392.294 C 1060.4 385.695 1060.95 366.536 1061 358.964 z"/>
<path transform="translate(0,0)" fill="rgb(255,255,255)" d="M 1230 358.964 C 1233.17 358.872 1234.43 358.694 1237.53 359.706 C 1238.6 366.305 1238.05 385.464 1238 393.036 C 1234.83 393.128 1233.57 393.306 1230.47 392.294 C 1229.4 385.695 1229.95 366.536 1230 358.964 z"/>
<path transform="translate(0,0)" fill="rgb(255,255,255)" d="M 1980 358.964 C 1983.17 358.872 1984.43 358.694 1987.53 359.706 C 1988.6 366.305 1988.05 385.464 1988 393.036 C 1984.83 393.128 1983.57 393.306 1980.47 392.294 C 1979.4 385.695 1979.95 366.536 1980 358.964 z"/>
<path transform="translate(0,0)" fill="rgb(255,255,255)" d="M 1968 358.964 C 1971.17 358.872 1972.43 358.694 1975.53 359.706 C 1976.6 366.305 1976.05 385.464 1976 393.036 C 1972.83 393.128 1971.57 393.306 1968.47 392.294 C 1967.4 385.695 1967.95 366.536 1968 358.964 z"/>
<path transform="translate(0,0)" fill="rgb(255,255,255)" d="M 1924 358.964 C 1927.17 358.872 1928.43 358.694 1931.53 359.706 C 1932.6 366.305 1932.05 385.464 1932 393.036 C 1928.83 393.128 1927.57 393.306 1924.47 392.294 C 1923.4 385.695 1923.95 366.536 1924 358.964 z"/>
<path transform="translate(0,0)" fill="rgb(255,255,255)" d="M 1799 358.964 C 1802.17 358.872 1803.43 358.694 1806.53 359.706 C 1807.6 366.305 1807.05 385.464 1807 393.036 C 1803.83 393.128 1802.57 393.306 1799.47 392.294 C 1798.4 385.695 1798.95 366.536 1799 358.964 z"/>
<path transform="translate(0,0)" fill="rgb(255,255,255)" d="M 2024 358.964 C 2027.17 358.872 2028.43 358.694 2031.53 359.706 C 2032.6 366.305 2032.05 385.464 2032 393.036 C 2028.83 393.128 2027.57 393.306 2024.47 392.294 C 2023.4 385.695 2023.95 366.536 2024 358.964 z"/>
<path transform="translate(0,0)" fill="rgb(255,255,255)" d="M 1767 358.964 C 1770.17 358.872 1771.43 358.694 1774.53 359.706 C 1775.6 366.305 1775.05 385.464 1775 393.036 C 1771.83 393.128 1770.57 393.306 1767.47 392.294 C 1766.4 385.695 1766.95 366.536 1767 358.964 z"/>
<path transform="translate(0,0)" fill="rgb(255,255,255)" d="M 1743 358.964 C 1746.17 358.872 1747.43 358.694 1750.53 359.707 C 1751.6 366.307 1751.05 385.486 1751 393.061 C 1746.98 393.008 1747.32 393.6 1744.29 391.751 C 1741.39 385.487 1742.94 367.119 1743 358.964 z"/>
<path transform="translate(0,0)" fill="rgb(255,255,255)" d="M 1105 358.964 C 1108.17 358.872 1109.43 358.694 1112.53 359.706 C 1113.6 366.305 1113.05 385.464 1113 393.036 C 1109.83 393.128 1108.57 393.306 1105.47 392.294 C 1104.4 385.695 1104.95 366.536 1105 358.964 z"/>
<path transform="translate(0,0)" fill="rgb(255,255,255)" d="M 1286 358.964 C 1289.17 358.872 1290.43 358.694 1293.53 359.706 C 1294.6 366.305 1294.05 385.464 1294 393.036 C 1290.83 393.128 1289.57 393.306 1286.47 392.294 C 1285.4 385.695 1285.95 366.536 1286 358.964 z"/>
<path transform="translate(0,0)" fill="rgb(255,255,255)" d="M 1129 358.964 C 1132.17 358.872 1133.43 358.694 1136.53 359.706 C 1137.6 366.305 1137.05 385.464 1137 393.036 C 1133.83 393.128 1132.57 393.306 1129.47 392.294 C 1128.4 385.695 1128.95 366.536 1129 358.964 z"/>
<path transform="translate(0,0)" fill="rgb(255,255,255)" d="M 1117 358.964 C 1120.17 358.872 1121.43 358.694 1124.53 359.706 C 1125.6 366.305 1125.05 385.464 1125 393.036 C 1121.83 393.128 1120.57 393.306 1117.47 392.294 C 1116.4 385.695 1116.95 366.536 1117 358.964 z"/>
<path transform="translate(0,0)" fill="rgb(255,255,255)" d="M 948 358.964 C 951.168 358.872 952.425 358.694 955.528 359.706 C 956.604 366.305 956.047 385.464 956 393.036 C 952.832 393.128 951.575 393.306 948.472 392.294 C 947.396 385.695 947.953 366.536 948 358.964 z"/>
<path transform="translate(0,0)" fill="rgb(255,255,255)" d="M 1900 358.964 C 1903.17 358.872 1904.43 358.694 1907.53 359.707 C 1908.6 366.307 1908.05 385.486 1908 393.061 C 1903.98 393.008 1904.32 393.6 1901.29 391.751 C 1898.39 385.487 1899.94 367.119 1900 358.964 z"/>
<path transform="translate(0,0)" fill="rgb(255,255,255)" d="M 1731 358.964 C 1734.17 358.872 1735.43 358.694 1738.53 359.707 C 1739.6 366.307 1739.05 385.486 1739 393.061 C 1734.98 393.008 1735.32 393.6 1732.29 391.751 C 1729.39 385.487 1730.94 367.119 1731 358.964 z"/>
<path transform="translate(0,0)" fill="rgb(255,255,255)" d="M 1093 358.964 C 1096.17 358.872 1097.43 358.694 1100.53 359.707 C 1101.6 366.312 1101.05 385.531 1101 393.113 C 1097.33 392.974 1097.29 393.545 1094.5 391.671 C 1091.33 385.609 1092.93 367.032 1093 358.964 z"/>
<path transform="translate(0,0)" fill="rgb(255,255,255)" d="M 1936 358.964 C 1939.16 358.873 1940.42 358.699 1943.53 359.693 C 1944.65 366.062 1943.96 385.118 1943.76 392.489 C 1940.72 392.958 1939.27 393.5 1936.46 392.3 C 1935.39 385.646 1935.95 366.578 1936 358.964 z"/>
<path transform="translate(0,0)" fill="rgb(255,255,255)" d="M 1992 358.964 C 1995.16 358.873 1996.42 358.699 1999.53 359.693 C 2000.65 366.062 1999.96 385.118 1999.76 392.489 C 1996.72 392.958 1995.27 393.5 1992.46 392.3 C 1991.39 385.646 1991.95 366.578 1992 358.964 z"/>
<path transform="translate(0,0)" fill="rgb(255,255,255)" d="M 1711 358.964 C 1714.16 358.873 1715.42 358.699 1718.53 359.693 C 1719.65 366.052 1718.97 385.103 1718.76 392.495 C 1715.25 392.9 1715.26 393.469 1712.42 392.044 C 1709.42 386.436 1710.93 366.556 1711 358.964 z"/>
<path transform="translate(0,0)" fill="rgb(255,255,255)" d="M 936 358.964 C 939.168 358.872 940.425 358.694 943.528 359.707 C 944.605 366.312 944.047 385.531 944 393.113 C 940.331 392.974 940.291 393.545 937.498 391.671 C 934.329 385.609 935.934 367.032 936 358.964 z"/>
<path transform="translate(0,0)" fill="rgb(255,255,255)" d="M 1912 358.964 C 1915.1 358.872 1916.43 358.678 1919.44 359.724 C 1920.3 369.548 1919.98 382.657 1920 392.75 C 1916.53 392.934 1916.28 393.488 1913.46 392.008 C 1910.37 386.352 1911.93 366.63 1912 358.964 z"/>
<path transform="translate(0,0)" fill="rgb(255,255,255)" d="M 1073 358.964 C 1075.57 358.963 1078.83 358.546 1080.69 360.027 C 1081.3 365.916 1081.5 386.489 1080.3 391.884 C 1077.52 393.05 1076.72 393.157 1074.4 392.348 C 1071.51 387.07 1072.91 366.087 1073 358.964 z"/>
<path transform="translate(0,0)" fill="rgb(255,255,255)" d="M 1037 358.964 C 1039.57 358.963 1042.83 358.546 1044.69 360.027 C 1045.3 365.916 1045.5 386.489 1044.3 391.884 C 1041.52 393.05 1040.72 393.157 1038.4 392.348 C 1035.51 387.07 1036.91 366.087 1037 358.964 z"/>
<path transform="translate(0,0)" fill="rgb(255,255,255)" d="M 1017 358.964 C 1019.57 358.963 1022.83 358.546 1024.69 360.027 C 1025.3 365.916 1025.5 386.489 1024.3 391.884 C 1021.52 393.05 1020.72 393.157 1018.4 392.348 C 1015.51 387.07 1016.91 366.087 1017 358.964 z"/>
<path transform="translate(0,0)" fill="rgb(255,255,255)" d="M 1005 358.964 C 1007.57 358.963 1010.83 358.546 1012.69 360.027 C 1013.3 365.916 1013.5 386.489 1012.3 391.884 C 1009.52 393.05 1008.72 393.157 1006.4 392.348 C 1003.51 387.07 1004.91 366.087 1005 358.964 z"/>
<path transform="translate(0,0)" fill="rgb(255,255,255)" d="M 2036 358.964 C 2039.17 358.872 2040.43 358.694 2043.53 359.708 C 2044.61 366.332 2044.05 385.718 2044 393.329 C 2039.53 392.861 2040.87 393.532 2037.67 391.322 C 2034.32 385.662 2035.93 366.706 2036 358.964 z"/>
<path transform="translate(0,0)" fill="rgb(255,255,255)" d="M 1823 358.964 C 1826.17 358.872 1827.43 358.694 1830.53 359.708 C 1831.61 366.332 1831.05 385.718 1831 393.329 C 1826.53 392.861 1827.87 393.532 1824.67 391.322 C 1821.32 385.662 1822.93 366.706 1823 358.964 z"/>
<path transform="translate(0,0)" fill="rgb(255,255,255)" d="M 960 358.964 C 963.066 358.899 964.763 358.601 967.586 359.809 C 968.637 367.892 968.031 384.698 967.955 393.449 C 964.952 393.318 964.629 393.409 961.937 392.233 C 958.509 387.686 959.974 365.792 960 358.964 z"/>
<path transform="translate(0,0)" fill="rgb(255,255,255)" d="M 992 359 C 995.883 358.858 996.664 358.846 1000.53 359.581 C 1000.83 360.705 998.903 387.322 999 391.777 L 998.269 392.543 C 995.105 393.457 996.309 393.609 993.676 392.33 C 990.759 387.049 991.894 366.296 992 359 z"/>
<path transform="translate(0,0)" fill="rgb(255,255,255)" d="M 1274 358.964 C 1276.7 358.909 1278.25 359.069 1280.94 359.378 C 1282.04 366.483 1282.01 382.538 1282 389.918 C 1279.85 392.445 1278.98 393.279 1275.75 392.567 C 1272.41 387.848 1273.92 365.75 1274 358.964 z"/>
<path transform="translate(0,0)" fill="rgb(255,255,255)" d="M 1811 358.964 C 1814.17 358.872 1815.43 358.694 1818.53 359.708 C 1819.61 366.332 1819.05 385.718 1819 393.329 C 1816.59 393.222 1816.08 393.369 1814.07 392.208 C 1809.36 381.86 1810.83 370.569 1811 358.964 z"/>
<path transform="translate(0,0)" fill="rgb(255,255,255)" d="M 1857.47 358.749 L 1862.08 359.31 L 1862.82 360.414 C 1863.2 366.474 1863.63 388.929 1862.1 394.098 C 1859.09 393.365 1858.43 393.331 1856.36 391.092 C 1851.68 380.867 1856.3 369.016 1857.47 358.749 z"/>
<path transform="translate(0,0)" fill="rgb(255,255,255)" d="M 1787 358.964 C 1790.17 358.872 1791.43 358.694 1794.53 359.708 C 1795.61 366.332 1795.05 385.718 1795 393.329 C 1791.3 392.997 1792.11 393.622 1789.75 391.607 C 1786.51 377.798 1786.91 373.24 1787 358.964 z"/>
<path transform="translate(0,0)" fill="rgb(255,255,255)" d="M 925 358.887 C 928.068 358.841 928.609 358.837 931.544 359.691 C 932.61 366.458 932.047 385.762 932 393.493 C 929.047 393.267 928.332 393.172 925.514 392.286 C 924.003 385.203 924.763 366.497 925 358.887 z"/>
<path transform="translate(0,0)" fill="rgb(255,255,255)" d="M 1688 358.887 C 1691.07 358.841 1691.61 358.838 1694.54 359.688 C 1695.6 366.447 1695.05 385.414 1695 393.113 C 1691.93 393.159 1691.39 393.162 1688.46 392.312 C 1687.4 385.553 1687.95 366.586 1688 358.887 z"/>
<path transform="translate(0,0)" fill="rgb(255,255,255)" d="M 1161 358.887 C 1164.07 358.841 1164.61 358.838 1167.54 359.688 C 1168.6 366.447 1168.05 385.414 1168 393.113 C 1164.93 393.159 1164.39 393.162 1161.46 392.312 C 1160.4 385.553 1160.95 366.586 1161 358.887 z"/>
<path transform="translate(0,0)" fill="rgb(255,255,255)" d="M 1700 358.887 C 1703.07 358.841 1703.61 358.838 1706.54 359.688 C 1707.6 366.447 1707.05 385.414 1707 393.113 C 1703.93 393.159 1703.39 393.162 1700.46 392.312 C 1699.4 385.553 1699.95 366.586 1700 358.887 z"/>
<path transform="translate(0,0)" fill="rgb(255,255,255)" d="M 1676 358.887 C 1679.07 358.841 1679.61 358.838 1682.54 359.688 C 1683.6 366.447 1683.05 385.414 1683 393.113 C 1679.93 393.159 1679.39 393.162 1676.46 392.312 C 1675.4 385.553 1675.95 366.586 1676 358.887 z"/>
<path transform="translate(0,0)" fill="rgb(255,255,255)" d="M 1880 358.887 C 1883.07 358.841 1883.61 358.838 1886.54 359.688 C 1887.61 366.458 1887.05 385.507 1887 393.221 C 1884.3 393.193 1883.59 393.414 1881.38 392.091 C 1878.48 386.773 1879.93 366.187 1880 358.887 z"/>
<path transform="translate(0,0)" fill="rgb(255,255,255)" d="M 1173 358.887 C 1176.07 358.841 1176.61 358.838 1179.54 359.689 C 1180.61 366.469 1180.05 385.599 1180 393.329 C 1177.12 393.229 1176.53 393.451 1174.42 391.759 C 1171.49 386.282 1172.92 366.218 1173 358.887 z"/>
<path transform="translate(0,0)" fill="rgb(255,255,255)" d="M 1869 358.887 C 1872.06 358.844 1872.61 358.841 1875.54 359.674 C 1876.65 366.145 1875.99 385.03 1875.74 392.508 C 1873.18 392.994 1872.65 393.316 1870.36 392.378 C 1867.54 387.082 1868.93 366.112 1869 358.887 z"/>
<path transform="translate(0,0)" fill="rgb(255,255,255)" d="M 1185 358.887 C 1188.07 358.841 1188.61 358.838 1191.54 359.689 C 1192.61 366.469 1192.05 385.599 1192 393.329 C 1189.12 393.229 1188.53 393.451 1186.42 391.759 C 1183.49 386.282 1184.92 366.218 1185 358.887 z"/>
<path transform="translate(0,0)" fill="rgb(255,255,255)" d="M 1242 358.671 L 1247.07 359.218 C 1247.01 359.133 1249.32 389.175 1249.38 391.414 C 1246.72 393.019 1246.15 393.054 1243.66 392.597 C 1240.42 387.843 1241.92 365.527 1242 358.671 z"/>
<path transform="translate(0,0)" fill="rgb(255,255,255)" d="M 1218 358.671 C 1220.26 358.82 1220.49 358.906 1222.69 359.53 C 1225.41 364.973 1224.08 386.067 1224 393.329 C 1221.74 393.18 1221.51 393.094 1219.31 392.47 C 1216.59 387.027 1217.92 365.933 1218 358.671 z"/>
<path transform="translate(0,0)" fill="rgb(255,255,255)" d="M 1206 358.671 C 1208.26 358.82 1208.49 358.906 1210.69 359.53 C 1213.41 364.973 1212.08 386.067 1212 393.329 C 1209.74 393.18 1209.51 393.094 1207.31 392.47 C 1204.59 387.027 1205.92 365.933 1206 358.671 z"/>
<path transform="translate(0,0)" fill="rgb(255,255,255)" d="M 1298 358.671 C 1300.26 358.82 1300.49 358.906 1302.69 359.53 C 1305.41 364.973 1304.08 386.067 1304 393.329 C 1301.74 393.18 1301.51 393.094 1299.31 392.47 C 1296.59 387.027 1297.92 365.933 1298 358.671 z"/>
<path transform="translate(0,0)" fill="rgb(255,255,255)" d="M 1150 358.671 C 1152.26 358.82 1152.49 358.906 1154.69 359.53 C 1157.41 364.973 1156.08 386.067 1156 393.329 C 1153.74 393.18 1153.51 393.094 1151.31 392.47 C 1148.59 387.027 1149.92 365.933 1150 358.671 z"/>
<path transform="translate(0,0)" fill="rgb(255,255,255)" d="M 981 358.671 C 983.26 358.82 983.487 358.906 985.692 359.53 C 988.409 364.973 987.078 386.067 987 393.329 C 984.74 393.18 984.513 393.094 982.308 392.47 C 979.591 387.027 980.922 365.933 981 358.671 z"/>
<path transform="translate(0,0)" fill="rgb(255,255,255)" d="M 1845 358.671 C 1847.26 358.82 1847.49 358.906 1849.69 359.53 C 1852.41 364.973 1851.08 386.067 1851 393.329 C 1848.74 393.18 1848.51 393.094 1846.31 392.47 C 1843.59 387.027 1844.92 365.933 1845 358.671 z"/>
<path transform="translate(0,0)" fill="rgb(255,255,255)" d="M 2047 479 L 2075 479 L 2075 519 L 2047 519 L 2047 479 z"/>
<path transform="translate(0,0)" fill="rgb(255,255,255)" d="M 1987 479 L 2015 479 L 2015 519 L 1987 519 L 1987 479 z"/>
<path transform="translate(0,0)" fill="rgb(255,255,255)" d="M 1928 479 L 1955 479 C 1955.04 491.699 1955.44 506.469 1954.75 519 C 1948.89 519.034 1932.91 519.466 1927.95 518.112 C 1926.23 509.108 1927.87 488.345 1928 479 z"/>
<path transform="translate(0,0)" fill="rgb(255,255,255)" d="M 2107 479 L 2133 479 L 2133 519 L 2107 519 L 2107 479 z"/>
<path transform="translate(0,0)" fill="rgb(255,255,255)" d="M 1749 479 L 1775 479 L 1775 519 L 1749 519 L 1749 479 z"/>
<path transform="translate(0,0)" fill="rgb(255,255,255)" d="M 1689 479 L 1715 479 L 1715 519 L 1689 519 L 1689 479 z"/>
<path transform="translate(0,0)" fill="rgb(255,255,255)" d="M 1809 479 L 1835 479 L 1835 519 L 1809 519 L 1809 479 z"/>
<path transform="translate(0,0)" fill="rgb(255,255,255)" d="M 1869 479 L 1895 479 L 1895 519 L 1869 519 L 1869 479 z"/>
<path transform="translate(0,0)" fill="rgb(255,255,255)" d="M 2097 478.671 C 2099.69 478.798 2100.12 478.821 2102.61 479.806 C 2103.59 487.442 2103.04 510.476 2103 519.329 C 2100.31 519.202 2099.88 519.179 2097.39 518.194 C 2096.41 510.558 2096.96 487.524 2097 478.671 z"/>
<path transform="translate(0,0)" fill="rgb(255,255,255)" d="M 2038 478.161 L 2041.49 479.135 C 2044.41 483.505 2043.07 512.467 2043 519.839 L 2039.51 518.865 C 2036.59 514.495 2037.93 485.533 2038 478.161 z"/>
<path transform="translate(0,0)" fill="rgb(255,255,255)" d="M 2019 478.161 L 2022.49 479.135 C 2025.41 483.505 2024.07 512.467 2024 519.839 L 2020.51 518.865 C 2017.59 514.495 2018.93 485.533 2019 478.161 z"/>
<path transform="translate(0,0)" fill="rgb(255,255,255)" d="M 2079.02 478.157 L 2082.61 479.423 C 2085.31 484.208 2084.08 512.184 2084 519.839 L 2080.51 518.865 C 2077.57 514.47 2078.94 485.536 2079.02 478.157 z"/>
<path transform="translate(0,0)" fill="rgb(255,255,255)" d="M 1978.62 478.209 L 1981.91 479.287 C 1984.36 484.711 1982.96 512.569 1982.69 520.057 C 1981.21 519.513 1980.51 519.091 1979.13 518.37 C 1976.74 512.751 1977.69 485.152 1978.62 478.209 z"/>
<path transform="translate(0,0)" fill="rgb(255,255,255)" d="M 1680.09 478.288 L 1683.6 479.97 C 1686.3 484.721 1685.07 512.263 1685 519.839 L 1681.51 518.865 C 1678.51 514.884 1679.95 485.452 1680.09 478.288 z"/>
<path transform="translate(0,0)" fill="rgb(255,255,255)" d="M 1899.43 478.282 L 1902.88 479.305 C 1905.05 484.17 1905 515.29 1902.63 520.243 L 1899.77 518.485 C 1899.36 517.039 1899.12 482.295 1899.43 478.282 z"/>
<path transform="translate(0,0)" fill="rgb(255,255,255)" d="M 1840.67 478.357 L 1842.79 479.125 C 1845.11 483.149 1844.49 512.628 1843.44 518.282 L 1841.26 519.649 C 1841.24 515.238 1840.67 513.695 1839.97 509.904 C 1838.84 503.709 1838.58 483.102 1840.67 478.357 z"/>
<path transform="translate(0,0)" fill="rgb(255,255,255)" d="M 1959.62 478.209 L 1962.91 479.287 C 1965.3 484.587 1964.06 512.932 1963.59 520.067 C 1962.13 519.417 1961.91 519.146 1960.65 518.226 C 1959.88 514.121 1958.99 481.708 1959.62 478.209 z"/>
<path transform="translate(0,0)" fill="rgb(255,255,255)" d="M 1721.13 478.15 L 1723.95 479.247 C 1726.21 484.31 1725 512.702 1724.87 519.85 L 1722.05 518.753 C 1719.79 513.69 1721 485.298 1721.13 478.15 z"/>
<path transform="translate(0,0)" fill="rgb(255,255,255)" d="M 2139.13 478.15 L 2141.95 479.247 C 2144.21 484.31 2143 512.702 2142.87 519.85 L 2140.05 518.753 C 2137.79 513.69 2139 485.298 2139.13 478.15 z"/>
<path transform="translate(0,0)" fill="rgb(255,255,255)" d="M 1919.13 478.15 L 1921.95 479.247 C 1924.21 484.31 1923 512.702 1922.87 519.85 L 1920.05 518.753 C 1917.79 513.69 1919 485.298 1919.13 478.15 z"/>
<path transform="translate(0,0)" fill="rgb(255,255,255)" d="M 1859.13 478.15 L 1861.95 479.247 C 1864.21 484.31 1863 512.702 1862.87 519.85 L 1860.05 518.753 C 1857.79 513.69 1859 485.298 1859.13 478.15 z"/>
<path transform="translate(0,0)" fill="rgb(255,255,255)" d="M 1799.13 478.15 L 1801.95 479.247 C 1804.21 484.31 1803 512.702 1802.87 519.85 L 1800.05 518.753 C 1797.79 513.69 1799 485.298 1799.13 478.15 z"/>
<path transform="translate(0,0)" fill="rgb(255,255,255)" d="M 1781.13 478.15 L 1783.95 479.247 C 1786.21 484.31 1785 512.702 1784.87 519.85 L 1782.05 518.753 C 1779.79 513.69 1781 485.298 1781.13 478.15 z"/>
<path transform="translate(0,0)" fill="rgb(255,255,255)" d="M 1739.13 478.15 L 1741.95 479.247 C 1744.21 484.31 1743 512.702 1742.87 519.85 L 1740.05 518.753 C 1737.79 513.69 1739 485.298 1739.13 478.15 z"/>
<path transform="translate(0,0)" fill="rgb(255,255,255)" d="M 1264 479 L 1292 479 L 1292 519 L 1264 519 L 1264 479 z"/>
<path transform="translate(0,0)" fill="rgb(255,255,255)" d="M 1025 479 L 1053 479 L 1053 519 L 1025 519 L 1025 479 z"/>
<path transform="translate(0,0)" fill="rgb(255,255,255)" d="M 1085 479 L 1113 479 L 1113 519 L 1085 519 L 1085 479 z"/>
<path transform="translate(0,0)" fill="rgb(255,255,255)" d="M 1204 479 L 1232 479 L 1232 519 L 1204 519 L 1204 479 z"/>
<path transform="translate(0,0)" fill="rgb(255,255,255)" d="M 906 479 L 934 479 L 934 519 L 906 519 L 906 479 z"/>
<path transform="translate(0,0)" fill="rgb(255,255,255)" d="M 847 479 L 874 479 L 874 519 L 847 519 L 847 479 z"/>
<path transform="translate(0,0)" fill="rgb(255,255,255)" d="M 966 479 L 993 479 L 993 519 L 966 519 L 966 479 z"/>
<path transform="translate(0,0)" fill="rgb(255,255,255)" d="M 1145 479 L 1172 479 L 1172 519 L 1145 519 L 1145 479 z"/>
<path transform="translate(0,0)" fill="rgb(255,255,255)" d="M 1236 478.352 C 1238.36 478.691 1238.45 478.789 1240.54 480.022 C 1243.39 485.025 1242.08 511.468 1242 519.329 C 1239.31 519.202 1238.88 519.18 1236.38 518.193 C 1235.41 510.522 1235.96 487.25 1236 478.352 z"/>
<path transform="translate(0,0)" fill="rgb(255,255,255)" d="M 1136.4 478.473 L 1139.87 479.319 C 1142.17 484.356 1141.55 512.07 1140.45 518.301 L 1138.47 519.532 C 1133.61 512.587 1133.89 485.031 1136.4 478.473 z"/>
<path transform="translate(0,0)" fill="rgb(255,255,255)" d="M 997.001 478.161 L 1000.49 479.135 C 1003.41 483.505 1002.07 512.467 1002 519.839 L 998.51 518.865 C 995.589 514.495 996.925 485.533 997.001 478.161 z"/>
<path transform="translate(0,0)" fill="rgb(255,255,255)" d="M 1117 478.161 L 1120.49 479.135 C 1123.41 483.505 1122.07 512.467 1122 519.839 L 1118.51 518.865 C 1115.59 514.495 1116.93 485.533 1117 478.161 z"/>
<path transform="translate(0,0)" fill="rgb(255,255,255)" d="M 837.001 478.161 L 840.49 479.135 C 843.411 483.505 842.075 512.467 841.999 519.839 L 838.51 518.865 C 835.589 514.495 836.925 485.533 837.001 478.161 z"/>
<path transform="translate(0,0)" fill="rgb(255,255,255)" d="M 1057 478.161 L 1060.49 479.135 C 1063.41 483.505 1062.07 512.467 1062 519.839 L 1058.51 518.865 C 1055.59 514.495 1056.93 485.533 1057 478.161 z"/>
<path transform="translate(0,0)" fill="rgb(255,255,255)" d="M 1255.62 478.209 L 1258.91 479.287 C 1261.34 484.677 1259.95 512.567 1259.71 520.054 L 1256.11 518.716 C 1253.72 513.261 1254.72 484.93 1255.62 478.209 z"/>
<path transform="translate(0,0)" fill="rgb(255,255,255)" d="M 1177.09 478.288 L 1180.6 479.97 C 1183.3 484.721 1182.07 512.263 1182 519.839 L 1178.51 518.865 C 1175.51 514.884 1176.95 485.452 1177.09 478.288 z"/>
<path transform="translate(0,0)" fill="rgb(255,255,255)" d="M 897.022 478.157 L 900.054 479.027 C 903.355 483.3 902.089 511.301 902 518.75 C 900.496 518.961 899.77 518.739 898.255 518.548 C 895.744 514.422 896.936 485.301 897.022 478.157 z"/>
<path transform="translate(0,0)" fill="rgb(255,255,255)" d="M 1195.38 478.304 L 1198.88 479.31 C 1200.98 484.497 1201.06 515.113 1198.67 520.239 L 1195.91 518.192 C 1195.1 512.133 1195 485.514 1195.38 478.304 z"/>
<path transform="translate(0,0)" fill="rgb(255,255,255)" d="M 1296.13 478.15 L 1298.95 479.247 C 1301.21 484.31 1300 512.702 1299.87 519.85 L 1297.05 518.753 C 1294.79 513.69 1296 485.298 1296.13 478.15 z"/>
<path transform="translate(0,0)" fill="rgb(255,255,255)" d="M 1077.13 478.15 L 1079.95 479.247 C 1082.21 484.31 1081 512.702 1080.87 519.85 L 1078.05 518.753 C 1075.79 513.69 1077 485.298 1077.13 478.15 z"/>
<path transform="translate(0,0)" fill="rgb(255,255,255)" d="M 1017.13 478.15 L 1019.95 479.247 C 1022.21 484.31 1021 512.702 1020.87 519.85 L 1018.05 518.753 C 1015.79 513.69 1017 485.298 1017.13 478.15 z"/>
<path transform="translate(0,0)" fill="rgb(255,255,255)" d="M 957.134 478.15 L 959.946 479.247 C 962.214 484.31 960.998 512.702 960.866 519.85 L 958.054 518.753 C 955.786 513.69 957.002 485.298 957.134 478.15 z"/>
<path transform="translate(0,0)" fill="rgb(255,255,255)" d="M 878.134 478.15 L 880.946 479.247 C 883.214 484.31 881.998 512.702 881.866 519.85 L 879.054 518.753 C 876.786 513.69 878.002 485.298 878.134 478.15 z"/>
<path transform="translate(0,0)" fill="rgb(255,255,255)" d="M 938.134 478.15 L 940.946 479.247 C 943.214 484.31 941.998 512.702 941.866 519.85 L 939.054 518.753 C 936.786 513.69 938.002 485.298 938.134 478.15 z"/>
<path transform="translate(0,0)" fill="rgb(255,255,255)" d="M 1569 576 L 1586 576 L 1586 608 L 1569 608 L 1569 576 z"/>
<path transform="translate(0,0)" fill="rgb(255,255,255)" d="M 1395 576 L 1411 576 L 1411 608 L 1395 608 L 1395 576 z"/>
<path transform="translate(0,0)" fill="rgb(255,255,255)" d="M 1419.06 551 C 1435.32 550.214 1439.31 564.078 1426.34 570.726 C 1413.94 572.856 1410.95 558.896 1419.06 551 z"/>
<path transform="translate(0,0)" fill="rgb(255,255,255)" d="M 1552.06 551 C 1567.57 550.264 1571.68 563.326 1558.37 570.771 C 1548.18 572.806 1541.95 561.135 1552.06 551 z"/>
<path transform="translate(0,0)" fill="rgb(255,255,255)" d="M 1419.29 173 C 1423.08 172.865 1428.12 172.664 1431.21 174.889 C 1435.02 181.075 1437.64 212.508 1433.54 216.878 L 1429.25 217 L 1412 217 C 1412.14 207.186 1411.2 197.298 1411.82 187.601 C 1412.32 179.768 1413.65 177.873 1419.29 173 z"/>
<path transform="translate(0,0)" fill="rgb(255,255,255)" d="M 1552.06 173 C 1555.88 172.855 1561.11 172.608 1564.21 174.888 C 1568.01 181.089 1570.65 212.5 1566.54 216.878 L 1562.25 217 L 1545 217 C 1545.17 202.172 1540.96 183.786 1552.06 173 z"/>
<path transform="translate(0,0)" fill="rgb(255,255,255)" d="M 1452.84 172.934 C 1459.47 172.951 1462.08 172.995 1466.93 177.957 C 1467.95 183.397 1469.18 213.529 1467.08 216.758 L 1462.25 217 L 1445 217 C 1445.22 199.914 1440.51 185.96 1452.84 172.934 z"/>
<path transform="translate(0,0)" fill="rgb(255,255,255)" d="M 1486.14 172.912 C 1501.86 172.651 1500.84 179.359 1501.04 192.442 C 1501.17 200.353 1501.31 208.052 1500.69 215.984 C 1498.08 217.488 1494.93 216.948 1491.5 217 L 1479 217 C 1478.95 208.553 1478.46 190.42 1479.69 182.746 L 1479.81 182.002 C 1480.5 177.689 1482.91 175.972 1486.14 172.912 z"/>
<path transform="translate(0,0)" fill="rgb(255,255,255)" d="M 1519.06 173 C 1525.64 172.856 1528.25 172.359 1532.93 177.656 C 1533.99 183.438 1535.17 213.606 1533.09 216.739 L 1528.25 217 L 1512 217 L 1512 179.67 C 1514.53 177.846 1516.85 175.26 1519.06 173 z"/>
<path transform="translate(0,0)" fill="rgb(255,255,255)" d="M 1107.52 741.392 C 1110.25 740.689 1132.7 740.819 1137.1 740.856 C 1183.67 741.47 1232.32 739.486 1277.5 752.223 C 1367.26 777.529 1409.09 877.923 1382.76 963.516 C 1373.01 995.213 1345.22 1032.72 1315.7 1048.16 C 1303.05 1058.53 1271.2 1070.34 1255.3 1073.26 C 1239.28 1076.2 1214.95 1076.02 1198.68 1076.01 L 1141.02 1076.1 C 1126.17 1076.12 1110.83 1076.51 1096.03 1075.77 C 1086.54 1075.53 1075.05 1061.51 1078.34 1053.01 C 1087.64 1028.98 1096.64 1012.28 1097.75 985.535 C 1098.76 960.899 1098.19 935.985 1098.04 911.109 C 1097.86 879.24 1099.33 846.761 1095.28 815.032 C 1094 799.498 1083.34 785.46 1081.31 770.51 C 1078.65 750.943 1090.51 743.336 1107.52 741.392 z M 1247.66 1005.57 C 1277.31 979.303 1284.19 952.502 1286.75 913.366 C 1289.71 868.179 1272.78 805.501 1220.11 797.989 C 1218.94 797.822 1217.64 798.117 1216.52 798.392 C 1198.31 800.264 1192.88 808.957 1191.47 826.473 C 1189.28 853.675 1190.93 880.548 1191.01 907.745 C 1191.15 937.264 1190.3 966.431 1192.1 995.909 C 1194.13 1029.22 1229.07 1019 1247.66 1005.57 z"/>
<path transform="translate(0,0)" fill="rgb(255,255,255)" d="M 110 741.5 C 115.134 740.423 148.93 740.971 156.333 740.993 C 191.275 741.292 226.711 740.335 261.6 742.104 C 303.156 744.21 357.475 770.475 354.106 819.365 C 351.27 860.528 336.595 874.748 308.224 900.46 C 309.496 902.343 312.293 903.052 314.47 904.094 C 349.013 920.634 368.839 953.21 368.497 991.403 C 368.277 1015.96 358.544 1031.29 341.625 1047.88 C 321.322 1062.77 304.31 1070.35 278.731 1073.01 C 250.479 1075.96 222.274 1075.17 194.037 1076 C 165.419 1076.84 137.507 1077.08 108.883 1075.87 C 101.348 1074.46 94.2888 1075.11 89.7966 1068.82 C 78.6794 1053.83 85.9068 1038.27 90.8543 1022.46 C 101.944 987.016 99.6211 948.321 100.034 911.528 C 100.401 878.822 100.852 847.834 96.6373 815.245 C 93.7435 792.872 77.5971 774.672 85.3777 752.484 C 88.4072 744.706 102.921 741.972 110 741.5 z M 249.029 1013.28 C 291.931 986.398 273.675 922.393 209.505 931.28 C 203.824 932.013 198.869 933.332 195.321 938.29 C 186.404 951.045 190.791 969.516 190.953 983.998 C 191.072 994.54 189.492 1006.41 199.279 1013.47 C 210.082 1021.26 237.445 1018.63 249.029 1013.28 z M 230.375 875.958 C 267.625 862.28 272.622 823.455 239.824 800.816 C 236.346 798.415 223.795 798.705 221.024 797.62 C 193.83 798.937 190.384 803.502 189.692 832.435 C 189.068 858.472 185.949 880.972 220.864 876.783 C 222.999 876.557 228.224 875.937 230.375 875.958 z"/>
<path transform="translate(0,0)" fill="rgb(255,255,255)" d="M 1764.44 741.019 C 1775.03 740.973 1787.48 741.086 1797.77 740.89 C 1851.41 739.866 1863.62 738.051 1887.93 789.152 C 1910.96 837.57 1937.42 886.369 1961 935.435 C 1961.15 895.733 1962.38 855.208 1956.23 815.652 C 1954.77 800.348 1931.98 772.532 1937 758.239 C 1944.58 736.684 1972.68 740.658 1989.87 741.132 C 2002.34 741.476 2013.03 739.876 2023.97 741.066 C 2065.54 745.587 2044.14 779.698 2036.98 801.861 C 2033.88 811.766 2031.54 821.895 2029.99 832.158 C 2026.76 854.545 2028.33 885.41 2028.02 908.349 C 2027.87 930.906 2027.41 952.237 2026.99 974.907 C 2026.49 1002.33 2032.39 1033.89 2022.1 1059.87 C 2016.38 1074.3 1998.8 1071.66 1988.8 1076 C 1965.51 1076.18 1946.65 1078.05 1927.63 1061.6 C 1913.33 1049.23 1912.27 1043.33 1904.67 1026.74 C 1897.87 1011.76 1890.93 996.838 1883.85 981.982 C 1863.43 939.409 1841.55 898.628 1821 856.635 C 1820.8 869.875 1821.7 883.067 1821.85 896.3 C 1822.18 926.327 1821.23 980.251 1828.66 1007.67 C 1831.86 1019.49 1838.45 1028.91 1842.8 1040.08 C 1845.62 1047.32 1845.57 1060.82 1841.73 1067.81 C 1840.34 1070.35 1835.79 1072.14 1833.19 1073.06 C 1820.28 1077.62 1760.25 1078.38 1748.35 1072.49 C 1743.87 1070.27 1740.13 1066.97 1738.63 1062.06 C 1733.98 1046.93 1744.96 1028.85 1749.4 1014.67 C 1752.1 1006.05 1753.92 997.12 1755.25 988.192 C 1759.18 961.912 1758.05 934.47 1758.05 907.928 C 1758.05 879.661 1758.58 851.365 1756.77 823.142 C 1756.26 815.239 1754.99 807.649 1753.14 799.951 C 1749.91 786.547 1739.82 763.478 1747.71 750.381 C 1750.63 745.524 1759.17 742.115 1764.44 741.019 z"/>
<path transform="translate(0,0)" fill="rgb(255,255,255)" d="M 759.483 741.162 C 764.637 740.53 781.433 740.937 787.38 740.909 C 802.236 741.085 817.061 740.332 831.895 741.41 C 846.593 742.479 860.469 749.918 868.315 762.606 C 879.869 780.591 887.417 801.524 897.23 820.339 C 917.129 858.493 938.108 897.535 956 936.657 C 956.147 896.879 956.08 853.424 950.488 814.261 C 947.771 795.229 923.166 773.044 934.698 752.62 C 937.398 747.836 944.759 742.205 950.185 741.843 C 973.152 740.313 997.017 740.563 1020.07 741.277 C 1028.85 741.558 1042.14 748.991 1043.05 758.489 C 1044.82 776.963 1032.2 794.964 1027.96 813.725 C 1021.43 842.568 1023.33 869.197 1022.05 898.421 C 1021.61 931.407 1022.48 962.135 1022.08 995.384 C 1021.87 1013.25 1024.72 1044.83 1015.88 1061.29 C 1010.07 1072.11 992.43 1073.88 981.25 1076 C 959.2 1076.06 941.244 1077.49 922.812 1062.42 C 907.928 1050.25 904.773 1039.66 897.226 1022.77 C 891.584 1010 885.717 997.343 879.63 984.787 C 858.916 941.719 836.835 900.166 816 857.635 C 815.798 889.684 816.368 921.734 817.71 953.755 C 818.275 968.804 818.859 986.12 821.397 1001.8 C 825.204 1025.33 860.742 1062.19 822.719 1074.76 C 816.443 1076.83 799.277 1076.34 792.414 1075.88 C 778.002 1074.93 754.108 1079.49 742.08 1071.92 C 741.082 1071.29 740.132 1070.59 739.238 1069.82 C 722.7 1055.59 737.505 1034.64 742.795 1018.78 C 753.25 987.449 751.668 954.72 752.493 922.309 C 753.377 896.575 753.289 870.817 752.23 845.09 C 751.158 818.092 748.901 798.989 740.367 773.005 C 737.298 763.663 740.142 750.688 748.047 744.628 C 749.961 743.16 756.781 741.767 759.483 741.162 z"/>
<path transform="translate(0,0)" fill="rgb(255,255,255)" d="M 475.505 741.28 C 487.887 739.363 587.105 740.224 594.554 743.646 C 598.781 745.587 603.479 752.715 605.153 756.93 C 613.689 778.43 617.73 802.877 623.345 825.363 C 632.913 863.685 643.325 902.186 656.885 939.305 C 664.614 960.948 673.127 982.303 682.406 1003.33 C 690.204 1020.71 714.658 1057.26 691.203 1070.83 C 675.074 1080.16 645.324 1076.8 626.41 1077.07 C 615.505 1077.23 595.585 1077.14 585.011 1075.28 C 544.497 1068.14 564.129 1035.8 576.531 1013.39 C 576.935 1010.5 577.588 1006.38 576.934 1003.55 C 576.331 1000.94 574.74 998.66 572.415 997.299 C 566.229 993.677 502.873 993.846 493.888 996.045 C 490.35 996.911 486.976 998.359 485.147 1001.71 C 479.252 1012.53 496.968 1033.57 499.743 1044.9 C 501.233 1050.98 501.064 1058.17 497.645 1063.61 C 493.524 1070.17 485.08 1074.48 477.689 1076.03 C 467.795 1078.1 412.749 1077.89 402.15 1076.36 C 397.485 1075.69 392.486 1073.9 388.603 1071.2 C 376.692 1062.91 380.014 1049.81 384.514 1038.4 C 395.585 1010.34 410.89 983.552 423.221 955.958 C 438.15 922.552 447.892 887.793 456.314 852.275 C 459.74 837.829 464.894 821.071 463.757 806.14 C 462.862 794.392 454.805 782.861 452.67 771.065 C 451.469 764.435 451.471 756.631 455.629 750.961 C 460.238 744.675 468.176 742.375 475.505 741.28 z M 535.616 939 C 544.633 939.048 558.41 940.046 565.32 933.811 C 570.173 920.418 548.347 862.662 543.511 846.246 C 541.735 840.217 536.372 839.73 531.071 840 C 521.833 850.012 503.895 910.667 501.081 927.447 C 499.326 937.918 529.154 940.7 535.616 939 z"/>
<path transform="translate(0,0)" fill="rgb(255,255,255)" d="M 2237 737.5 C 2237.43 737.428 2237.86 737.356 2238.29 737.284 C 2264.35 734.651 2294.64 742.295 2317.37 754.764 C 2318.28 755.264 2329.02 761.78 2328.71 761.49 C 2338.38 770.536 2350.36 781.41 2355.16 793.815 C 2361.91 811.263 2364.98 823.672 2358.08 841.904 C 2353.31 854.494 2340.62 864.919 2328.73 869.949 C 2317.19 874.825 2302.69 874.135 2291.3 869.23 C 2271.37 860.65 2270.11 840.622 2263.09 822.864 C 2259.04 812.626 2252.4 804.541 2241.99 800.231 C 2233.34 796.65 2224.99 797.7 2216.53 801.283 C 2199.55 808.475 2185.16 828.228 2178.93 845.427 C 2166.37 880.167 2170.69 924.931 2186.22 958.16 C 2195 976.953 2212.43 999.562 2232.54 1006.57 C 2243.74 1010.47 2257.73 1012.04 2269.17 1007.21 C 2269.49 1007.05 2269.8 1006.88 2270.11 1006.72 C 2270.93 1006.45 2272.86 1005.35 2273.32 1004.63 C 2276.58 999.547 2281.5 988.399 2280.44 982.589 C 2276.87 963.028 2249.86 968.419 2238.67 960.996 C 2234.52 958.243 2230.89 946.451 2230.9 941.089 C 2230.92 933.054 2232.32 927.128 2237.87 920.904 C 2247.66 909.919 2278.36 908.075 2292.46 908.001 L 2293.5 908 C 2306.64 907.807 2344.98 907.993 2355.9 914.756 C 2361.26 918.122 2365.25 927.869 2365.51 933.78 C 2367.21 972.507 2367.68 1011.39 2366.61 1050.15 C 2366.45 1055.88 2364.34 1067.22 2360.98 1072.27 C 2358.69 1075.71 2346.24 1078.16 2342.27 1080.89 C 2325.19 1082.89 2310.01 1074.95 2294.2 1070.91 C 2293.36 1070.69 2274.55 1076.72 2272.19 1077.35 C 2262.37 1079.9 2252.35 1081.64 2242.24 1082.54 C 2158.41 1089.75 2082.6 1032.9 2076.64 946.787 C 2071.37 870.599 2094.33 781.281 2171.99 750.613 C 2195.88 741.176 2211.26 739.655 2237 737.5 z"/>
<path transform="translate(0,0)" fill="rgb(255,255,255)" d="M 1445 741.5 C 1451.72 740.376 1462.5 740.974 1468.51 740.877 C 1515.19 740.177 1561.19 735.292 1533.49 800.227 C 1523.49 828.696 1525.89 851.056 1526.08 881.897 C 1526.39 930.419 1512.68 1029.26 1593.51 1009.43 C 1609.78 1005.44 1615.05 977.252 1615.28 961.798 C 1616 912.071 1617.29 860.698 1614.73 810.96 C 1613.71 791.137 1586.97 762.525 1611.97 743.447 C 1621.54 739.271 1632.22 741.767 1641.71 741.096 C 1684.94 738.042 1720 742.094 1693.53 798.86 C 1693.1 803.538 1691.25 810.976 1690.38 816.093 C 1688.45 827.049 1687.34 838.133 1687.05 849.255 C 1685.71 899.65 1694.37 988.566 1669.84 1033.12 C 1668.27 1035.97 1665.42 1037.56 1663.62 1040.11 C 1661.88 1042.58 1660.73 1045.33 1658.83 1047.76 C 1644.93 1065.55 1615.29 1076.41 1593.6 1079.15 C 1553.92 1084.16 1503.75 1082.24 1470.71 1056.59 C 1456.98 1045.93 1447.32 1031.58 1441.6 1015.25 C 1425 967.882 1434.9 884.095 1430.52 831.589 C 1428.62 808.729 1416.58 791.759 1414.32 772.325 C 1413.49 765.172 1414.47 758.366 1419.19 752.688 C 1425.44 745.175 1435.69 742.394 1445 741.5 z"/>
<path transform="translate(0,0)" fill="rgb(255,255,255)" d="M 490 305.5 C 505.812 303.38 524.281 307.137 538.337 314.527 C 596.181 344.952 593.151 456.347 529.299 478.657 C 521.806 481.275 514.444 481.822 507.5 484 C 457.087 485.272 424.367 458.501 418.784 408.345 C 413.306 359.134 436.086 311.155 490 305.5 z M 502.901 450.571 C 511.846 446.893 515.733 444.857 519.377 435.21 C 528.666 410.616 528.328 379.881 519.214 355.294 C 514.951 343.795 506.999 336.478 494.541 337 C 469.698 352.322 469.622 394.985 473.928 420.849 C 476.531 436.479 484.252 452.929 502.901 450.571 z"/>
<path transform="translate(0,0)" fill="rgb(255,255,255)" d="M 150.966 307 C 170.249 306.957 194.917 305.668 213.852 308.264 C 223.335 309.564 227.807 339.563 230.151 348.792 C 239.995 387.541 252.023 424.653 270.003 460.531 C 279.838 486.416 240.011 481.718 224.344 481.253 C 193.721 480.344 192.67 473.266 204.548 450.922 C 206.48 445.859 207.121 444.135 203.518 440.169 C 198.667 438.07 167.094 438.318 161.295 440.076 C 149.078 451.15 194.09 483.416 136.462 481.112 C 115.388 480.269 91.5258 485.483 109.393 452.156 C 128.191 417.093 140.298 383.013 147.475 344.084 C 149.346 333.934 128.795 317.769 150.966 307 z M 188.25 410 C 192.659 409.81 197.017 409.41 200.236 406.149 C 202.354 399.688 191.813 370.384 188.638 362.973 C 187.089 359.358 185.874 358.881 182.223 358.595 C 177.602 367.615 167.571 394.165 167.25 404.842 C 167.104 409.711 183.666 410.166 188.25 410 z"/>
<path transform="translate(0,0)" fill="rgb(255,255,255)" d="M 261.541 307 C 278.029 306.919 313.361 303.698 327.181 313.156 C 331.557 318.636 325.858 331.762 325.578 338.26 C 325.217 346.644 337.405 370.298 342.588 375.906 L 344.041 375.454 C 349.146 369.604 356.436 351.199 361.774 343.674 C 364.875 335.511 355.13 320.765 358.338 314.135 C 363.784 302.88 397.865 307.098 408.766 307.875 C 412.953 308.173 419.5 317.308 416.182 323.714 C 404.014 347.213 386.005 367.048 374.002 390.963 C 364.961 406.425 354.082 430.839 363.93 447.75 C 368.334 452.291 374.144 472.55 367.364 477.016 C 358.388 482.928 306.457 484.057 299.274 475.345 C 295.572 470.854 306.852 445.166 308.945 436.625 C 314.272 414.889 300.736 400.794 290.417 383.161 C 279.735 365.787 267.399 346.702 255.716 329.689 C 249.727 320.968 252.676 312.41 261.541 307 z"/>
<path transform="translate(0,0)" fill="rgb(255,255,255)" d="M 119.443 521.019 C 154.102 521.005 159.981 517.23 150.455 550.114 C 149.89 552.067 148.323 567.04 149.614 568.413 C 157.743 560.252 166.831 548.806 173.551 539.34 C 178.504 532.363 173.956 529.274 177.295 524.14 C 182.902 520.02 210.771 518.809 215.985 523.955 C 219.177 535.545 184.704 559.958 181.085 573.438 C 181.994 580.9 209.804 620.652 216.875 627.375 C 222.448 632.638 220.444 640.673 213.529 642.173 C 206.768 643.639 196.767 643.218 189.799 643.28 C 170.432 643.454 173.648 632.312 169.459 618.555 C 166.924 610.227 159.247 602.917 155.24 595.355 L 153.976 595.623 C 140.47 612.644 158.72 625.215 155.396 637.84 C 150.843 645.349 137.434 642.986 129.875 643.203 C 93.2985 644.252 112.775 632.009 114.114 617.544 C 116.167 595.358 115.633 567.149 113.606 544.771 C 112.711 534.887 100.234 525.233 119.443 521.019 z"/>
<path transform="translate(0,0)" fill="rgb(255,255,255)" d="M 241.425 521 C 262.366 521.173 283.366 520.541 304.243 521.012 C 312.2 521.192 321.452 523.142 324.219 531.258 C 326.108 535.463 327.49 546.354 324.511 550.558 C 308.374 573.329 292.777 525.008 274.334 547.832 C 272.518 550.08 272.341 564.644 273.531 567.354 C 279.219 580.317 303.815 556.116 308.843 573.743 C 315.476 606.812 284.614 588.334 275.626 590.593 C 271.495 595.289 272.894 605.339 273 612.154 C 273.434 613.974 273.85 616.044 274.932 617.602 C 286.408 634.132 307.155 603.009 319.184 605.147 C 321.017 605.473 323.006 607.283 324.007 608.77 C 327.756 614.336 327.326 622.584 325.802 628.804 C 324.815 632.834 322.557 638.516 318.691 640.583 C 311.262 644.556 245.884 644.453 236.843 641.502 C 234.755 640.821 233.267 640.241 232.28 638.232 C 229.541 632.654 233.833 624.989 235.654 619.522 C 239.873 606.85 241.66 550.853 235.562 538.904 C 234.539 536.898 233.606 534.733 232.971 532.568 C 232.353 530.464 232.622 528.696 233.688 526.864 C 235.882 523.096 237.321 522.078 241.425 521 z"/>
<path transform="translate(0,0)" fill="rgb(255,255,255)" d="M 478.202 540.156 C 479.416 540.042 482.872 539.852 483.751 540.265 C 494.094 545.12 534.923 570.499 539.486 578.238 C 539.734 581.433 540.15 586.757 537.648 588.594 C 521.612 600.364 500.268 616.572 481.991 623.687 C 467.364 629.38 470.384 599.034 469.728 593.652 L 468.13 593 L 411.393 593.16 C 403.426 593.195 384.519 594.778 377.561 590.752 C 372.008 587.54 369.946 578.875 375.386 574.594 C 382.796 568.763 402.342 570.871 411.77 570.889 L 470 571 C 469.74 559.438 466.667 546.216 478.202 540.156 z"/>
</svg>